<svg xmlns="http://www.w3.org/2000/svg">
  <symbol viewBox="0 0 401.998 401.998" id="phone">
    <path d="M401.129,311.475c-1.137-3.426-8.371-8.473-21.697-15.129c-3.61-2.098-8.754-4.949-15.41-8.566
		c-6.662-3.617-12.709-6.95-18.13-9.996c-5.432-3.045-10.521-5.995-15.276-8.846c-0.76-0.571-3.139-2.234-7.136-5
		c-4.001-2.758-7.375-4.805-10.14-6.14c-2.759-1.327-5.473-1.995-8.138-1.995c-3.806,0-8.56,2.714-14.268,8.135
		c-5.708,5.428-10.944,11.324-15.7,17.706c-4.757,6.379-9.802,12.275-15.126,17.7c-5.332,5.427-9.713,8.138-13.135,8.138
		c-1.718,0-3.86-0.479-6.427-1.424c-2.566-0.951-4.518-1.766-5.858-2.423c-1.328-0.671-3.607-1.999-6.845-4.004
		c-3.244-1.999-5.048-3.094-5.428-3.285c-26.075-14.469-48.438-31.029-67.093-49.676c-18.649-18.658-35.211-41.019-49.676-67.097
		c-0.19-0.381-1.287-2.19-3.284-5.424c-2-3.237-3.333-5.518-3.999-6.854c-0.666-1.331-1.475-3.283-2.425-5.852
		s-1.427-4.709-1.427-6.424c0-3.424,2.713-7.804,8.138-13.134c5.424-5.327,11.326-10.373,17.7-15.128
		c6.379-4.755,12.275-9.991,17.701-15.699c5.424-5.711,8.136-10.467,8.136-14.273c0-2.663-0.666-5.378-1.997-8.137
		c-1.332-2.765-3.378-6.139-6.139-10.138c-2.762-3.997-4.427-6.374-4.999-7.139c-2.852-4.755-5.799-9.846-8.848-15.271
		c-3.049-5.424-6.377-11.47-9.995-18.131c-3.615-6.658-6.468-11.799-8.564-15.415C98.986,9.233,93.943,1.997,90.516,0.859
		C89.183,0.288,87.183,0,84.521,0c-5.142,0-11.85,0.95-20.129,2.856c-8.282,1.903-14.799,3.899-19.558,5.996
		c-9.517,3.995-19.604,15.605-30.264,34.826C4.863,61.566,0.01,79.271,0.01,96.78c0,5.135,0.333,10.131,0.999,14.989
		c0.666,4.853,1.856,10.326,3.571,16.418c1.712,6.09,3.093,10.614,4.137,13.56c1.045,2.948,2.996,8.229,5.852,15.845
		c2.852,7.614,4.567,12.275,5.138,13.988c6.661,18.654,14.56,35.307,23.695,49.964c15.03,24.362,35.541,49.539,61.521,75.521
		c25.981,25.98,51.153,46.49,75.517,61.526c14.655,9.134,31.314,17.032,49.965,23.698c1.714,0.568,6.375,2.279,13.986,5.141
		c7.614,2.854,12.897,4.805,15.845,5.852c2.949,1.048,7.474,2.43,13.559,4.145c6.098,1.715,11.566,2.905,16.419,3.576
		c4.856,0.657,9.853,0.996,14.989,0.996c17.508,0,35.214-4.856,53.105-14.562c19.219-10.656,30.826-20.745,34.823-30.269
		c2.102-4.754,4.093-11.273,5.996-19.555c1.909-8.278,2.857-14.985,2.857-20.126C401.99,314.814,401.703,312.819,401.129,311.475z"
		/>
  </symbol>

<!-- FEATURES -->

  <symbol viewBox="0 0 16 15.2" id="leaf">
    <path d="M2.3,9.3c0,0.2,0.1,0.4,0.1,0.6C2.4,10.7,2.5,12,2.5,12H3C3,12,3,9.9,2.7,8.8c-0.3-1.2-0.4-3.4,0.3-5L2.5,3.6
		c0,0-0.6,1.2-0.6,3.1c0,1.2,0.1,1.7,0.2,2.2C1.7,8.6,0.6,7.6,0.7,5.5C0.9,3.1,3,0.9,3,0.9s3.7,3.5,0.4,7.4l0.4,0.3
		c0,0,1.5-1.7,1.5-3.6c0-1.9-0.8-3.5-2.3-4.8c0,0-2.6,2.5-2.8,5.5C0.1,8.5,2.2,9.5,2.2,9.5L2.3,9.3z"/>
	  <path d="M7.5,6.7C3.8,7.8,4,11.4,4.1,12.2c-1.3,1.3-1.9,2.5-1.9,2.5l0.4,0.2c3.8-6.3,9.7-5.1,9.7-5.1V9.3
		c-3.6-0.4-6.1,1-7.8,2.4l0,0C4.4,10.4,5,7.3,8.8,7c4.4-0.1,6.5,2.5,6.5,2.5c-2.3,3.7-4.9,4.2-6.5,4.4C7.1,14.2,5,13,5,13l-0.2,0.4
		c0,0,1.8,1.2,4.1,1c5-0.6,6.9-5,6.9-5C15.3,8.4,11.6,5.7,7.5,6.7z"/>
  </symbol>

  <symbol viewBox="0 0 18.2 14.8" id="track">
    <path d="M2.9,5.7l1-0.8c0,0,0.1,0,0.1,0c0.3,0,0.5-0.2,0.5-0.5c0-0.2-0.1-0.3-0.2-0.4V1.9H3.8V4
		C3.6,4.1,3.5,4.2,3.5,4.4c0,0,0,0.1,0,0.1l-1,0.8L2.9,5.7z"/>
  	<path d="M18.1,11.1V7.9c0-1-0.4-1.4-0.4-1.4s-1-1.3-1.6-2.1s-1.4-0.8-1.4-0.8h-3.4V3.1c0-0.7-0.5-1.2-1.2-1.2H7.2
		C6.5,0.9,5.3,0.2,4,0.2C1.8,0.2,0.1,2,0.1,4.2c0,0.9,0.3,1.7,0.8,2.4V11c0,0.7,0.5,1.2,1.2,1.2h0.5c0,0,0,0.1,0,0.1
		c0,1.2,1,2.2,2.2,2.2c1.2,0,2.2-1,2.2-2.2c0-0.1,0-0.1,0-0.1H10h0.1c0.3,0,1,0,1.9,0c0,0,0,0.1,0,0.1c0,1.2,1,2.2,2.2,2.2
		c1.2,0,2.2-1,2.2-2.2c0-0.1,0-0.1,0-0.1c0.1,0,0.2,0,0.2,0C18.3,12.3,18.1,11.1,18.1,11.1z M17.6,7.6c0,0,0,0.1,0,0.3h-3.9
		c-0.2,0-0.4-0.2-0.4-0.4V5.9c0-0.2,0.2-0.4,0.4-0.4h2.6c0.3,0.3,0.6,0.7,0.8,1C17.6,7.1,17.6,7.6,17.6,7.6z M4,0.8
		c1.9,0,3.5,1.5,3.5,3.5S5.9,7.7,4,7.7S0.6,6.1,0.6,4.2S2.1,0.8,4,0.8z M4.7,14c-0.9,0-1.6-0.7-1.6-1.6s0.7-1.6,1.6-1.6
		s1.6,0.7,1.6,1.6S5.6,14,4.7,14z M6.7,11.7c-0.3-0.8-1.1-1.5-2-1.5c-0.9,0-1.7,0.6-2,1.5H2c-0.3,0-0.6-0.3-0.6-0.6V7.1
		c0.7,0.6,1.6,1,2.6,1c2.2,0,3.9-1.8,3.9-3.9c0-0.6-0.2-1.2-0.4-1.7h2.6c0.3,0,0.6,0.3,0.6,0.6v8c0,0.3-0.3,0.6-0.6,0.6H6.7z
		 M14.1,14c-0.9,0-1.6-0.7-1.6-1.6s0.7-1.6,1.6-1.6s1.6,0.7,1.6,1.6S15,14,14.1,14z M16.6,11.8h-0.4c-0.3-0.9-1.1-1.5-2-1.5
		c-1,0-1.8,0.6-2,1.5h-1c0.2-0.2,0.3-0.4,0.3-0.7V4c0,0,2.2,0,3.1,0c0.9,0,1.3,0.6,1.3,0.6S15.8,4.8,16,5h-2.3
		c-0.5,0-0.8,0.4-0.8,0.8v1.6c0,0.5,0.4,0.8,0.8,0.8h4c0,0.8,0,2,0,2.6C17.6,11.9,16.6,11.8,16.6,11.8z"/>
  </symbol>

  <symbol viewBox="0 0 15.2 15.2" id="tape-measure">
    <path d="M4.3,3c0,0.2,0.4,0.4,1,0.4c0.6,0,1-0.2,1-0.4c0-0.2-0.4-0.4-1-0.4C4.8,2.6,4.3,2.7,4.3,3z"/>
    <path d="M15.1,6.7c0-1-0.8-1.8-1.8-1.8h-0.4v0H4.1c0,0-2.4,0.1-3.5-1.8c0.1-1.4,1.2-2.4,2.6-2.4h4
		c1.5,0,2.6,1.2,2.6,2.6v0.5h0.5V3.4c0-1.8-1.4-3.2-3.2-3.2H3.3c-1.8,0-3.2,1.4-3.2,3.2v1.3v0.2v3.2c0,1.8,1.4,3.2,3.2,3.2H4v-0.5
		H3.2c-1.5,0-2.6-1.2-2.6-2.6V4.9V4.7V4C0.9,4.4,1.9,5.4,4,5.4c3,0,8.8,0,8.8,0h0.5c0.7,0,1.2,0.5,1.2,1.2v0.6v0.2
		c0,0.7-0.5,1.2-1.2,1.2h-0.1v0H6.9c-1,0-1.8,0.8-1.8,1.8v2.7c0,1,0.8,1.8,1.8,1.8h6.4c1,0,1.8-0.8,1.8-1.8v-2.7c0,0,0-2.4,0-3.1
		c0,0,0,0,0-0.1V6.7z M14.5,13.3c0,0.7-0.5,1.2-1.2,1.2H6.8c-0.7,0-1.2-0.5-1.2-1.2v-2.9c0-0.7,0.5-1.2,1.2-1.2h1.9v1.7h0.5V9.2h2.3
		v0h0.9v1.7h0.5V9.2h0.4c0.5,0,1-0.2,1.3-0.5V13.3z"/>
  </symbol>

<!-- SOCIALS -->

  <symbol xmlns="http://www.w3.org/2000/svg" viewBox="0 0 36.7 36.7" id="facebook">
    <path d="M36.7 34.7c0 1.1-.9 2-2 2h-9.4V22.5h4.8l.7-5.5h-5.5v-3.5c0-1.6.4-2.7 2.7-2.7h2.9v-5c-.5-.1-2.2-.2-4.3-.2-4.2 0-7.1 2.6-7.1 7.3V17h-4.8v5.5h4.8v14.2H2c-1.1 0-2-.9-2-2V2C0 .9.9 0 2 0h32.7c1.1 0 2 .9 2 2v32.7z"></path>
  </symbol>
  <symbol xmlns="http://www.w3.org/2000/svg" viewBox="0 0 36.7 36.7" id="instagram">
    <path d="M32.3 0H4.4C2 0 0 1.9 0 4.3v28.1c0 2.4 2 4.3 4.4 4.3h27.9c2.4 0 4.4-1.9 4.4-4.3V4.3c0-2.4-2-4.3-4.4-4.3m-5.9 5.7c0-.6.5-1.1 1.1-1.1H31c.6 0 1.1.5 1.1 1.1v3.4c0 .6-.5 1.1-1.1 1.1h-3.4c-.6 0-1.1-.5-1.1-1.1l-.1-3.4zm-8 5.6c3.9 0 7.1 3.1 7.1 7s-3.2 7-7.1 7-7.1-3.1-7.1-7c0-3.8 3.2-7 7.1-7m14.8 20.8c0 .6-.5 1.1-1.1 1.1H4.6c-.6 0-1.1-.5-1.1-1.1V14.9H8c-.6.9-.8 2.5-.8 3.5 0 6.1 5 11.1 11.2 11.1s11.2-5 11.2-11.1c0-1-.1-2.6-.9-3.5h4.6l-.1 17.2z"></path>
  </symbol>
  <symbol xmlns="http://www.w3.org/2000/svg" viewBox="0 0 36.7 36.7" id="twitter">
    <path d="M35.7 3.7c-1.5.9-3.1 1.5-4.8 1.9-1.4-1.5-3.3-2.4-5.5-2.4-4.2 0-7.5 3.5-7.5 7.7 0 .6.1 1.2.2 1.8-6.3-.4-11.8-3.5-15.5-8.2-.6 1.1-1 2.5-1 3.9 0 2.7 1.3 5 3.4 6.4-1.2 0-2.4-.4-3.4-1v.2c0 3.7 2.6 6.9 6 7.6-.6.2-1.3.3-2 .3-.5 0-1 0-1.4-.1 1 3.1 3.7 5.3 7 5.4-2.6 2.1-5.8 3.3-9.4 3.3-.6 0-1.2 0-1.8-.1 3.3 2.2 7.3 3.5 11.5 3.5 13.9 0 21.4-11.8 21.4-22v-1c1.5-1.1 2.8-2.4 3.8-4-1.3.6-2.8 1-4.3 1.2 1.5-1.1 2.7-2.6 3.3-4.4"></path>
  </symbol>
  <symbol xmlns="http://www.w3.org/2000/svg" viewBox="0 0 36.7 36.7" id="vk">
    <path d="M36.5 26.8c0-.1-.1-.2-.1-.2-.6-1.1-1.9-2.6-3.7-4.2-.8-.8-1.3-1.3-1.5-1.6-.4-.5-.5-1-.3-1.5.2-.4.7-1.2 1.7-2.5.5-.7.9-1.2 1.2-1.6 2.2-2.9 3.2-4.8 2.9-5.6l-.1-.2c-.1-.3-.3-.4-.6-.5-.3-.1-.7-.1-1.2 0h-5.9c-.2 0-.2.1-.2.1h-.1l-.1.1c-.1 0-.1.1-.2.2s-.1.2-.2.3c-.6 1.5-1.3 3-2 4.3-.5.8-.9 1.5-1.3 2.1-.4.6-.7 1-1 1.3l-.7.7c-.2.2-.4.2-.5.2-.1 0-.2-.1-.3-.1-.2-.1-.3-.3-.4-.5-.1-.2-.2-.4-.2-.7 0-.3-.1-.6-.1-.8v-5.7c0-.4 0-.7-.1-.9 0-.2-.1-.4-.2-.6-.1-.2-.2-.4-.4-.5l-.6-.3c-.7-.2-1.5-.2-2.6-.2-2.4 0-3.9.1-4.6.5-.3.1-.5.3-.7.6-.2.3-.3.4-.1.5.8.1 1.3.4 1.6.8l.1.2c.1.2.2.5.3.9.1.4.1.9.2 1.4.1.9.1 1.7 0 2.4s-.1 1.2-.2 1.5c-.1.4-.1.7-.3.9l-.2.4c0 .1-.1.1-.1.1-.2.1-.3.1-.5.1s-.4-.1-.6-.3c-.3-.2-.5-.4-.8-.7-.3-.3-.6-.7-.9-1.3-.3-.6-.7-1.2-1.1-2l-.3-.6c-.2-.4-.5-.9-.8-1.6-.3-.7-.6-1.3-.9-2-.1-.2-.3-.4-.5-.6h-.1C7.1 9 7 9 6.9 8.9c-.1 0-.3-.1-.4-.1H1.3c-.6 0-1 .2-1.2.4v.1c-.1.1-.1.2-.1.3 0 .1 0 .3.1.5.8 1.8 1.6 3.5 2.5 5.2.9 1.7 1.7 3 2.3 4 .7 1 1.3 2 2 2.9.7.9 1.1 1.5 1.4 1.7.2.3.4.4.5.6l.5.5c.3.3.8.7 1.3 1.1.6.4 1.2.8 2 1.3.7.4 1.6.8 2.5 1 1 .3 1.9.4 2.8.3h2.2c.4 0 .8-.2 1-.4l.1-.1c.1-.1.1-.2.1-.4s.1-.3.1-.5c0-.5 0-1 .1-1.5.1-.4.2-.8.3-1 .1-.2.3-.4.4-.6.2-.2.3-.2.3-.3.1 0 .1-.1.2-.1.3-.1.7 0 1.1.3.4.3.8.7 1.2 1.1.4.4.8.9 1.3 1.5.5.5 1 1 1.3 1.2l.4.2c.3.2.6.3 1 .4.4.1.8.2 1.1.1l4.9-.1c.5 0 .9-.1 1.1-.2.3-.2.4-.3.5-.5.1-.2.1-.4 0-.7 0 0 0-.2-.1-.3zm0 0"></path>
  </symbol>

<!-- BENEFITS -->

  <symbol xmlns="http://www.w3.org/2000/svg" viewBox="0 0 18.8 20" id="1-happy-man">
    <path d="M17.4 5.8c.2-.2.4-.4.5-.6.7-.9.6-1.3-.1-1.9s-1.8.3-1.8.3l-.2.2c-1.1-1-2.5-1.8-4.1-2.2C11.1.7 10.2.1 9.2.1c-1.1 0-2 .7-2.6 1.6a9.4 9.4 0 0 0-3.5 2c-.2-.1-.6-.5-1.1-.6C1.3 3 .6 3.5.5 4.2c0 .4.4 1 .9 1.6C.5 7.2 0 8.8 0 10.6c0 5.1 4.2 9.3 9.4 9.3 1.8 0 3.6-.5 5-1.4l-.3-.7c-1.3-3.3-1-5.4-.9-6.4.3-1.1 1.4-2.6 2-3.4.4-.5 1-1 1.6-1.6.8 1.2 1.2 2.6 1.2 4.2 0 2.3-1 4.4-2.5 6l.6.5c1.7-1.7 2.7-4 2.7-6.5 0-1.8-.5-3.4-1.4-4.8zM9.2.9c1.3 0 2.3 1.2 2.3 2.7s-1 2.7-2.3 2.7-2.3-1.1-2.3-2.7S7.9.9 9.2.9zm0 6.2c1.7 0 3.1-1.6 3.1-3.5 0-.4-.1-.7-.2-1.1 1.2.4 2.2 1 3.1 1.8-.8.7-2 1.6-2.6 2-.9.7-2.4 1.4-3.6 1.4-1.2 0-1.8-.5-2.7-.9-.8-.4-2.1-1.9-2.7-2.5.8-.7 1.7-1.2 2.6-1.6 0 .3-.1.6-.1.9 0 2 1.4 3.5 3.1 3.5zM.8 10.6c0-1.5.4-2.9 1.1-4.2l.3.3s2.5 2.9 3 3.6c.5.7-.1 1.2-.5 3-.3 1.4-.3 3.3-.3 4.2C2.2 15.9.8 13.4.8 10.6zm15.5-4.8c-.4.4-1.8 1.6-3 3.5s-1 3.4-.9 4.5c.1 1.1.4 2.1.5 2.5.1.3.5 1.4.6 1.7-1.2.6-2.6 1-4 1-1.6 0-3-.4-4.3-1.1 0-3.4.2-3.9.3-4.4 0-.5.3-1.5.6-2.3.2-.7-.1-1.3-.4-1.6-.3-.3-3.2-3.8-3.7-4.5-.6-.7-.7-1-.2-1.2.5-.3 1.8 1.3 2.4 2 .5.7 2.8 2.6 4.9 2.5s3.6-1.2 4.2-1.6c.5-.4 3.1-2.5 3.5-2.8.4-.3.9 0 .8.3-.1.3-.9 1.1-1.3 1.5z"></path>
  </symbol>
  <symbol xmlns="http://www.w3.org/2000/svg" viewBox="0 0 20.6 20.8" id="2-happy-face">
    <path d="M10.3.2C4.7.2.1 4.8.1 10.4s4.6 10.2 10.2 10.2S20.5 16 20.5 10.4 15.9.2 10.3.2zm0 19.6c-5.2 0-9.4-4.2-9.4-9.4S5.1 1 10.3 1s9.4 4.2 9.4 9.4-4.2 9.4-9.4 9.4z"></path>
    <path d="M10.3 15.7c-3.5 0-5.6-3.1-5.6-3.1l-.7.5c2.8 3.6 6.3 3.5 6.3 3.5s3.5.2 6.3-3.5l-.7-.5s-2.1 3.1-5.6 3.1zm-3.4-4.2C9.3 10.4 9.7 9 9.7 8.3c0-.8-.5-1.7-1.4-1.7-1 0-1.4.5-1.4.5s-.4-.5-1.4-.5c-.9 0-1.4 1-1.4 1.7s.4 2.1 2.8 3.2zm0-3.4c.5-.8 1.9-.9 2 .1 0 1.4-2 2.4-2 2.4s-2-1-2-2.4c.1-1 1.5-.9 2-.1zm6.8 3.4c2.4-1.1 2.8-2.5 2.8-3.1 0-.8-.5-1.7-1.4-1.7-1 0-1.4.5-1.4.5s-.4-.5-1.4-.5c-.9 0-1.4 1-1.4 1.7 0 .6.4 2 2.8 3.1zm0-3.4c.5-.8 1.9-.9 2 .1 0 1.4-2 2.4-2 2.4s-2-1-2-2.4c.1-1 1.5-.9 2-.1z"></path>
  </symbol>
  <symbol xmlns="http://www.w3.org/2000/svg" viewBox="0 0 22.3 18.9" id="3-muscular-arm">
    <path d="M17.4 3.1c-2.1 0-4.8 1.5-4.7 4.6 0 0-4.1-1.3-5.3 3 0 0-.7-1.5-1.6-2.2-1-.7-2.2-2.5-2.3-3.4.1-.5.2-.5.4-.6.1 0 .1.8 1 .9.8-.1 1-.3 1.3-.7l.9-1s.9-1.2.1-1.8c-.7-.7-2-2-3.6-1.7-.9.2-1.6.9-1.6.9L.8 2.2S0 3 0 4.6C0 6 .3 8.3.3 8.3l.4 2.4c.1.6.9 4.1 2.8 6 1.2 1.4 1.9 2 2.5 2.1 1 0 1.5-.6 2.3-.6.8 0 1.6.6 3.3.6s5.5-1 7.1-5.9c1.5-.6 3.6-1.7 3.6-5s-2.9-4.8-4.9-4.8zm.7 9.2c-1.1 4.4-4.6 5.6-6.3 5.8-1.6 0-2.5-.6-3.7-.6-.7 0-1.7.6-2 .6S5 17.4 4 16.3s-1.4-2.1-1.8-2.9c-.4-.8-1.1-4-1.1-4S.8 6.2.8 4.8c0-1.3.6-2.1.6-2.1L3 1.3c.9-.7 2-.2 2-.2s1.1.7 1.5 1.1c.5.4 0 .8 0 .8S5.4 4.4 5 4.5c-.5.1-.6-1.1-.6-1.1-.5.2-1.3.4-1.6 1.3-.3 1.1 1.3 3.4 2.5 4.5 1.1 1.1 1.8 2.9 1.8 2.9l.9-.3s-.1-2.1 1.7-3.2c2-1.1 3.8.4 3.8.4-.6-5 3.8-5.1 4.1-5.1s3.8.3 4.1 3.8c-.2 4-3.6 4.6-3.6 4.6z"></path>
  </symbol>

<!-- OTHER -->

  <symbol xmlns="http://www.w3.org/2000/svg" viewBox="0 0 10.9 8.7" id="checkmark">
    <path d="M10.3.6C9.6-.2 8.4-.2 7.7.5L4 4.2l-.8-.8c-.7-.7-1.9-.7-2.6 0H.5c-.7.7-.7 1.9 0 2.6l2.2 2.2c.4.4.9.5 1.3.5.5 0 .9-.2 1.3-.5l5-5c.7-.7.7-1.9 0-2.6z" fill="#0d0e0f"></path>
  </symbol>

</svg>